<svg xmlns="http://www.w3.org/2000/svg" width="41.157" height="41.014" viewBox="0 0 41.157 41.014"><g transform="translate(-2679.276 -4647.768)"><g transform="translate(2679.276 4647.768)"><path d="M548.854,405.193l6.057,6c-1.137,1.056-2.328,2.057-3.377,3.192a2.334,2.334,0,0,0-.491,1.67,8.479,8.479,0,0,1-3.377,8.368,8.125,8.125,0,0,1-8.958.8,7.971,7.971,0,0,1-4.715-7.506,8.543,8.543,0,0,1,10.2-8.628,1.917,1.917,0,0,0,1.445-.467C546.761,407.548,547.778,406.361,548.854,405.193ZM542.5,415a2.68,2.68,0,0,0-2.569,2.585,2.794,2.794,0,0,0,2.626,2.57,2.681,2.681,0,0,0,2.534-2.627A2.567,2.567,0,0,0,542.5,415Z" transform="translate(-533.993 -385.195)" fill="#ff6201"/><path d="M608.353,350.249c-1.17,1.076-2.31,2.188-3.522,3.215a1.389,1.389,0,0,0-.236,2.219c.666.665,1.481.581,2.217-.243,1.056-1.182,2.242-2.246,3.389-3.377a8.334,8.334,0,0,1,.3,8.949,8.091,8.091,0,0,1-8.081,3.842,1.743,1.743,0,0,0-1.823.58c-1.263,1.364-2.56,2.7-3.848,4.046l-5.843-6.079c1.133-1.072,2.427-2.33,3.761-3.544a2.088,2.088,0,0,0,.738-2.14c-.871-5.467,4.6-10.31,9.994-8.908.911.236,1.784.617,2.675.931Z" transform="translate(-570.81 -348.564)" fill="#ff6201"/><path d="M561.336,374.178c.622-.762,1.2-1.461,1.765-2.163.452-.558.87-.576,1.384-.03.891.947,1.814,1.866,2.76,2.759.557.525.447.911-.05,1.4-1.979,1.946-3.913,3.939-5.919,5.855a1.3,1.3,0,0,1-1.24.143c-1.215-1.035-2.335-2.181-3.585-3.382l2.651-2.825c-.368-.393-.679-.744-1.01-1.075q-8-8.009-16-16.014c-1.3-1.3-1.3-1.3-2.924-.052-1.527-1.9-3.076-3.8-4.564-5.74-.127-.166.05-.73.255-.956a32.72,32.72,0,0,1,2.486-2.477,1.027,1.027,0,0,1,.966-.118c1.885,1.45,3.725,2.958,5.523,4.406-.029.217-.008.337-.054.374-1.135.908-.878,1.6.1,2.565,5.418,5.316,10.76,10.708,16.13,16.073C560.338,373.252,560.688,373.566,561.336,374.178Z" transform="translate(-534.358 -349.122)" fill="#ff6201"/><path d="M626.355,435.583a5.691,5.691,0,0,1-3.3,4.786,4.813,4.813,0,0,1-5.464-.73c-1.429-1.255-2.713-2.675-4.08-4a.771.771,0,0,1-.013-1.3q3.053-3.011,6.064-6.064c.487-.494.854-.415,1.3.043,1.3,1.335,2.735,2.555,3.892,4A16.043,16.043,0,0,1,626.355,435.583Z" transform="translate(-585.198 -399.906)" fill="#ff6201"/></g></g></svg>