<svg xmlns="http://www.w3.org/2000/svg" width="37.422" height="46.001" viewBox="0 0 37.422 46.001"><g transform="translate(-152.906 -1200.34)"><path d="M336.267,124.58c1.116,1,2.2,1.941,3.237,2.922.724.684,1.137.146,1.6-.319,1.436-1.443,2.85-2.909,4.32-4.317a3.475,3.475,0,0,1,3.641-1.116,3.346,3.346,0,0,1,1.406,5.547c-1.3,1.5-2.751,2.863-4.179,4.241a10.379,10.379,0,0,1-1.59,1.043c1.113,1.169,1.884,1.927,2.6,2.739a2.1,2.1,0,0,1,.166,2.968c-5.136,6.107-12.672,9.209-20.29,7.078a14.817,14.817,0,0,1-3.471-1.641c-.715-.425-1.183-.516-1.788.137-1.148,1.237-2.409,2.37-3.538,3.623-2.3,2.556-2.215,4.993.188,7.392a18.938,18.938,0,0,1,2.264,2.357c.308.44.142,1.213.19,1.835-.631-.019-1.489.219-1.852-.1a27.128,27.128,0,0,1-4.036-4.153c-1.9-2.614-1.17-5.368.457-7.77a34.515,34.515,0,0,1,4.213-4.591,1.915,1.915,0,0,0,.509-2.4c-3.952-8.195-1.274-15.071,4.252-21.381.065-.075.14-.141.209-.211,2.453-2.456,3.408-2.463,5.665.113.888,1.013,1.562.946,2.418-.019,1.283-1.446,2.6-2.865,3.993-4.21a3.545,3.545,0,0,1,5.071-.259c1.366,1.354,1.271,3.367-.311,5.04C339.939,120.881,338.221,122.586,336.267,124.58Zm9,12.431a5.642,5.642,0,0,0-.437-.6q-8.216-8.221-16.426-16.449c-.705-.711-1.128-.492-1.7.092-2.911,2.982-5.12,6.353-5.56,10.6-.713,6.87,2.3,12.622,10.023,12.826C337,143.628,341.416,141.09,345.269,137.011Z" transform="translate(-161.088 1087.204)" fill="#ff6201"/><path d="M3.106,3.571c.887,0,1.778-.051,2.66.013,1.029.074,1.374.742.69,1.484C4.979,6.672,3.411,8.2,1.823,9.692c-.232.219-.778.1-1.179.145C.7,9.356.568,8.713.83,8.424a36.025,36.025,0,0,0,2.944-3.23,21.542,21.542,0,0,1-2.561-.03,1.82,1.82,0,0,1-1.188-.67c-.121-.18.225-.8.5-1.094C1.545,2.319,2.592,1.257,3.7.27,3.983.021,4.538.082,4.966,0c-.046.479.075,1.084-.173,1.409A16.072,16.072,0,0,1,2.923,3.23Z" transform="translate(172.64 1217.641) rotate(17)" fill="#ff6201"/><path d="M6.909.341a4.845,4.845,0,0,1-.378.934A11,11,0,0,1,1.046,4.84,1.179,1.179,0,0,1,.032,4.279,1.226,1.226,0,0,1,.394,3.161C2.02,2.062,3.679,1,5.394.051,5.721-.13,6.343.219,6.909.341Z" transform="translate(163.766 1216.613) rotate(-9)" fill="#ff6201"/></g></svg>